<svg class="svg-logo" xmlns="http://www.w3.org/2000/svg" width="144.55" height="45" viewBox="0 0 144.55 45" aria-labelledby="svg-logo-title" role="img"><title id="svg-logo-title">Trump Hotel Collection</title><path d="M109.25,35.39h1.92V35.7h-0.8V38H110V35.7h-0.79V35.39Zm2.33,0H112l0.68,2.22,0.67-2.22h0.46V38h-0.3V35.81L112.87,38h-0.31l-0.67-2.22V38h-0.3V35.39Z" fill="#FFFFFF"/><path d="M38,44.84h2.31a1,1,0,0,1-.48-1V40.4H44V43.8a1,1,0,0,1-.48,1H45.8a1,1,0,0,1-.48-1v-7a1,1,0,0,1,.48-1.05H43.49A1,1,0,0,1,44,36.76v2.63H39.85V36.76a1,1,0,0,1,.48-1.05H38a1,1,0,0,1,.48,1.05v7a1,1,0,0,1-.48,1m13.14-4.49A4.62,4.62,0,0,0,56,45a4.74,4.74,0,0,0,4.9-4.75,4.87,4.87,0,0,0-9.73.1m1.42,0c0-2.29,1.34-3.78,3.37-3.78a3.42,3.42,0,0,1,3.49,3.67A3.44,3.44,0,0,1,56,44a3.4,3.4,0,0,1-3.44-3.64m14.75,4.48h2.31a1,1,0,0,1-.48-1V36.73h1.49a2.06,2.06,0,0,1,1,.16,1.58,1.58,0,0,1,.52.48l-0.23-1.67H65l-0.23,1.67a1.52,1.52,0,0,1,1.51-.64h1.49V43.8a1,1,0,0,1-.48,1m11.54-1V40.29h2.34a2.5,2.5,0,0,1,.79.07,1,1,0,0,1,.41.25l-0.07-1.42a1.34,1.34,0,0,1-.71.08H78.87V36.73h2.75a1.74,1.74,0,0,1,1.29.36l0.05,0L82.8,35.71H77a1,1,0,0,1,.48,1.05v7a1,1,0,0,1-.48,1h6.08l0.42-1.59-0.08.07a2.65,2.65,0,0,1-2,.49H78.87Zm9.54,1h6.25l0.53-1.62a2.28,2.28,0,0,1-.79.44,3.34,3.34,0,0,1-1,.15H90.24v-7a1,1,0,0,1,.48-1.05H88.41a1,1,0,0,1,.48,1.05v7a1,1,0,0,1-.48,1m11.8-.16a11,11,0,0,0,2.44.33c2.35,0,3.89-1.14,3.89-2.86a2.24,2.24,0,0,0-.75-1.74,5.21,5.21,0,0,0-2-1,4.62,4.62,0,0,1-1.83-.89,1.1,1.1,0,0,1-.27-0.73c0-.77.71-1.26,1.82-1.26a4.2,4.2,0,0,1,1.53.31,5.17,5.17,0,0,1,.83.47l-0.21-1.59-0.22,0a9.37,9.37,0,0,0-1.7-.16c-2.22,0-3.48.93-3.48,2.55a1.88,1.88,0,0,0,1,1.7,8.7,8.7,0,0,0,1.68.75l0.88,0.31a2.94,2.94,0,0,1,.75.37,1.29,1.29,0,0,1,.56,1.09c0,1-.89,1.64-2.24,1.64a4.35,4.35,0,0,1-2.89-1Z" fill="#FFFFFF"/><path d="M3.71,2.67H7.59V21c0,1.46-.28,2.13-1.24,2.7h6c-0.92-.57-1.24-1.24-1.24-2.7V2.67h6a3.62,3.62,0,0,1,1.6.3L18.29,0M29.45,23.71h6c-0.92-.57-1.24-1.24-1.24-2.7V11.94a5,5,0,0,1,2.74.6A8.49,8.49,0,0,1,39.37,15l6.19,8.67h5.83a6,6,0,0,1-1.85-1,5.21,5.21,0,0,1-1.32-1.42l-0.43-.57-4.66-6.36c-0.25-.36-0.39-0.53-0.43-0.6-0.18-.25-0.39-0.5-0.6-0.78a8.39,8.39,0,0,0-.75-0.78,5.61,5.61,0,0,0-.92-0.71c3.41-.71,5.19-2.63,5.19-5.62A5.45,5.45,0,0,0,41.75.5,14.91,14.91,0,0,0,37.24,0c-0.92,0-1.6,0-2,0H29.45c1,0.6,1.24,1.24,1.24,2.74V21c0,1.46-.28,2.13-1.24,2.7M34.22,9.46V2.67c1,0,1.46,0,2,0,2.35,0,3.52.21,4.37,0.85A2.89,2.89,0,0,1,41.68,5.9a3.41,3.41,0,0,1-3,3.41,12.79,12.79,0,0,1-2.63.21c-0.57,0-1,0-1.88-.07M57.87,0c1,0.6,1.24,1.24,1.24,2.74V14.08c0,3.8.53,5.55,2.17,7.22a10.24,10.24,0,0,0,7.57,2.84c4.27,0,7.5-1.88,8.82-5.12a11.69,11.69,0,0,0,.68-4.69V2.74c0-1.49.28-2.13,1.24-2.74h-5.3c1,0.6,1.24,1.24,1.24,2.74V14.18c0,3.13-.36,4.41-1.49,5.58a6.66,6.66,0,0,1-4.87,1.81,6.49,6.49,0,0,1-5.55-2.52c-0.78-1.17-1-2.28-1-4.94V2.74c0-1.49.32-2.13,1.24-2.74h-6ZM88.22,23.71h5a2.15,2.15,0,0,1-.89-1.85,4.08,4.08,0,0,1,0-.68l2-15.78,8.25,18.73L110.73,5.4l2,15.14a10,10,0,0,1,0,1.07,2.26,2.26,0,0,1-.89,2.1h5.72a3.89,3.89,0,0,1-1.39-3.06L113.86,3.09A6.56,6.56,0,0,1,113.78,2a2.14,2.14,0,0,1,1-2h-4.73l-7.11,16.39L95.69,0h-4.8a2.18,2.18,0,0,1,1,1.92,9.85,9.85,0,0,1-.11,1.39L89.61,21c-0.18,1.53-.5,2.17-1.39,2.74m39.48,0h6c-0.92-.57-1.24-1.24-1.24-2.7V13.12a12,12,0,0,0,4,.68c4.76,0,8.11-2.88,8.11-7a6.44,6.44,0,0,0-3.63-6A10.3,10.3,0,0,0,136.87,0c-0.28,0-.85,0-1.71,0H127.7c1,0.6,1.24,1.24,1.24,2.74V21c0,1.46-.28,2.13-1.24,2.7m4.76-13.08v-8c3.48,0,4.44.07,5.51,0.36a3.82,3.82,0,0,1,2.74,3.87c0,2.67-2.06,4.41-5.15,4.41a7.64,7.64,0,0,1-3.09-.64" fill="#FFFFFF"/><path d="M7.57,2.67h-6A3.55,3.55,0,0,0,0,3L0.41,0H18.29" fill="#FFFFFF"/></svg>