<?xml version="1.0" encoding="UTF-8" standalone="no"?>
<svg
   xmlns:dc="http://purl.org/dc/elements/1.1/"
   xmlns:cc="http://creativecommons.org/ns#"
   xmlns:rdf="http://www.w3.org/1999/02/22-rdf-syntax-ns#"
   xmlns:svg="http://www.w3.org/2000/svg"
   xmlns="http://www.w3.org/2000/svg"
   viewBox="0 0 108.00001 47.000004"
   height="47.000004"
   width="108.00001"
   xml:space="preserve"
   id="svg2"
   version="1.1"><metadata
     id="metadata8"><rdf:RDF><cc:Work
         rdf:about=""><dc:format>image/svg+xml</dc:format><dc:type
           rdf:resource="http://purl.org/dc/dcmitype/StillImage" /><dc:title></dc:title></cc:Work></rdf:RDF></metadata><defs
     id="defs6" /><g
     transform="matrix(1.3333333,0,0,-1.3333333,-53.303599,116.56827)"
     id="g10"><g
       transform="matrix(0.02169835,0,0,0.0222541,31.303199,40.564858)"
       id="g12"><path
         id="path14"
         style="fill:#a98d5d;fill-opacity:1;fill-rule:nonzero;stroke:none"
         d="M 1010.92,1183.73 C 922.102,1088.56 845.988,968.031 822.699,872.859 c 101.524,0 219.931,35.93 317.221,101.473 105.76,71.938 183.99,171.338 183.99,281.278 0,35.94 -12.65,86.7 -59.18,86.7 -74.05,0 -169.22,-67.65 -253.81,-158.58 z m -611.143,-67.7 c 0,283.39 376.399,496.97 573.086,518.15 -103.633,23.23 -198.808,82.46 -198.808,202.99 0,171.29 215.754,268.57 448.335,268.57 107.88,0 287.63,-12.65 287.63,-156.46 0,-76.17 -61.35,-141.7 -124.76,-162.87 -14.82,0 -16.94,6.35 -16.94,12.7 57.11,48.64 78.28,116.35 78.28,145.94 0,112.05 -143.81,126.87 -224.21,126.87 -156.47,0 -361.577,-78.23 -361.577,-230.52 0,-154.35 177.637,-181.87 279.107,-190.34 10.59,0 14.82,-8.42 14.82,-16.88 0,-19.05 -29.59,-38.06 -46.52,-42.3 -14.83,2.12 -29.59,2.12 -44.42,2.12 -232.636,0 -568.855,-200.93 -568.855,-465.27 0,-137.46 114.18,-253.75 270.692,-255.871 46.535,162.821 175.527,329.871 279.113,414.461 74.05,59.22 150.17,103.63 219.98,103.63 76.12,0 124.77,-46.52 124.77,-122.64 0,-65.58 -25.42,-118.46 -63.47,-171.28 C 1203.38,929.922 968.637,824.211 807.934,824.211 795.227,779.801 788.879,735.398 788.879,690.98 c 0,-44.402 6.348,-80.398 23.293,-122.691 8.406,-14.769 14.766,-27.469 14.766,-38.059 0,-4.23 -4.239,-8.468 -10.586,-8.468 -25.352,0 -54.942,88.82 -59.18,107.867 -4.238,23.301 -12.707,48.66 -12.707,90.941 0,40.18 4.238,82.469 8.469,103.641 -143.809,6.348 -353.157,97.289 -353.157,291.819" /><path
         id="path16"
         style="fill:#a98d5d;fill-opacity:1;fill-rule:nonzero;stroke:none"
         d="m 1681.95,1343.13 c 30.42,0.56 -14.09,-53.52 -37.18,-67.04 -4.48,-2.62 6.76,66.47 37.18,67.04 z m 251.76,-216.41 c -67.69,-42.29 -238.98,-131.22 -312.97,-150.271 42.28,29.641 54.94,67.701 54.94,107.871 0,52.88 -21.13,107.87 -27.47,158.59 44.4,44.41 71.88,82.52 73.99,103.63 0,8.48 -8.47,19.06 -21.11,19.06 -44.42,0 -84.59,-46.53 -84.59,-109.99 -61.35,-55 -443.03,-279.219 -519.19,-325.688 0,0 2.12,-16.942 12.7,-16.942 67.7,40.18 457.84,268.63 504.37,304.57 -2.11,-78.24 -14.82,-169.17 -48.64,-209.34 -19.06,-21.171 -44.41,-27.53 -63.47,-27.53 -33.82,0 -54.99,35.95 -57.11,42.29 -2.12,4.24 -6.3,12.71 -14.77,12.71 -6.35,0 -23.29,-4.24 -23.29,-23.24 8.47,-50.76 63.47,-80.401 124.82,-80.401 116.29,0 310.87,112.211 414.5,177.801 0,6.3 -4.23,16.88 -12.71,16.88" /><path
         id="path18"
         style="fill:#a98d5d;fill-opacity:1;fill-rule:nonzero;stroke:none"
         d="m 2063.8,1403.66 c 69.76,112.05 98.36,156.53 155.47,234.77 6.3,8.46 4.18,23.28 12.66,25.4 14.81,0 44.4,-21.17 44.4,-35.94 0,-6.35 -4.23,-12.7 -12.65,-23.29 -63.46,-76.12 -81.47,-118.47 -132.23,-207.29 -32.23,-43.18 -19.01,-31.71 -19.01,-31.71 -50.76,-93.06 -109.99,-215.75 -109.99,-315.11 0,-42.28 10.59,-63.451 50.77,-63.451 80.34,0 217.81,80.341 308.75,133.221 8.46,0 12.69,-12.71 12.69,-16.89 -116.29,-71.93 -279.16,-173.448 -376.44,-173.448 -63.42,0 -86.7,38.109 -86.7,93.048 0,88.82 57.11,217.82 133.22,346.86 l 19.06,33.83" /><path
         id="path20"
         style="fill:#a98d5d;fill-opacity:1;fill-rule:nonzero;stroke:none"
         d="m 2480.47,1001.85 c 74.01,0 190.34,99.41 241.11,177.64 0,33.83 -21.18,69.76 -65.58,69.76 -84.59,0 -211.47,-124.75 -211.47,-207.22 0,-16.94 6.35,-40.18 35.94,-40.18 z m 285.52,-52.881 c -59.23,0 -78.29,38.07 -78.29,84.591 0,21.17 4.24,46.52 10.58,67.7 -67.64,-59.23 -171.28,-152.291 -268.57,-152.291 -44.4,0 -73.99,21.121 -73.99,67.661 0,35.98 12.64,74.04 21.12,88.82 0,0 -31.71,-19.01 -40.18,-23.25 -4.24,2.12 -12.7,14.83 -12.7,16.95 48.64,29.58 80.4,50.7 97.28,65.52 65.59,59.23 141.7,114.23 232.64,114.23 40.18,0 82.47,-25.41 99.4,-52.88 10.59,12.71 33.83,38.06 48.65,38.06 16.94,0 42.29,-14.83 42.29,-35.94 -42.29,-42.29 -76.11,-107.88 -76.11,-175.53 0,-29.64 16.88,-59.231 50.76,-59.231 59.17,0 198.76,80.361 274.87,126.881 8.47,0 12.71,-10.59 12.71,-16.89 -48.65,-29.63 -86.71,-52.88 -148.06,-86.74 -46.52,-25.36 -137.46,-67.661 -192.4,-67.661" /><path
         id="path22"
         style="fill:#a98d5d;fill-opacity:1;fill-rule:nonzero;stroke:none"
         d="M 3245.56,1339.16 C 3194.8,1246.11 3162,1149.85 3162,1050.49 c 0,-42.28 10.59,-63.451 50.77,-63.451 80.35,0 217.81,80.341 308.75,133.221 8.47,0 12.7,-12.71 12.7,-16.89 -116.29,-71.93 -279.16,-173.448 -376.44,-173.448 -63.42,0 -86.71,38.109 -86.71,93.048 0,88.82 30.67,191.38 106.79,320.42 l 19.06,33.83 c 69.76,112.06 94.67,147.03 151.79,225.26 6.3,8.47 4.18,23.29 12.65,25.41 14.82,0 44.41,-21.18 44.41,-35.94 0,-6.35 -4.23,-12.71 -12.65,-23.29 -63.47,-76.12 -77.79,-108.97 -128.56,-197.79 l -19,-31.71" /><path
         id="path24"
         style="fill:#a98d5d;fill-opacity:1;fill-rule:nonzero;stroke:none"
         d="m 3665.38,1143.55 c 25.41,0 63.47,6.3 99.41,19 46.53,16.94 80.35,59.23 80.35,84.59 0,16.94 -12.65,29.64 -38.06,29.64 -44.4,0 -128.99,-69.81 -141.7,-133.23 z m 454.69,-23.29 c 8.47,0 12.71,-10.59 12.71,-16.89 -133.24,-84.63 -264.35,-156.511 -399.69,-156.511 -84.59,0 -162.82,38.063 -162.82,145.931 0,12.66 2.12,25.35 4.18,35.94 -23.24,-14.82 -46.53,-29.58 -69.76,-42.29 -6.36,0 -12.7,12.71 -12.7,16.93 38.05,23.25 69.81,44.42 95.16,65.53 46.53,82.47 162.87,145.94 226.29,145.94 35.94,0 78.23,-10.59 78.23,-63.47 0,-59.18 -82.47,-105.7 -143.77,-120.52 -29.64,-8.47 -63.45,-12.71 -86.7,-14.82 0,-84.59 31.71,-124.76 120.53,-124.76 99.41,0 264.34,82.47 338.34,128.99" /><path
         id="path26"
         style="fill:#a98d5d;fill-opacity:1;fill-rule:nonzero;stroke:none"
         d="m 1836.63,1386.47 c 7.85,22.74 22.77,40.91 39.73,56.48 4.39,3.68 8.52,7.85 13.21,11.17 l 14.16,9.88 c 4.66,3.44 9.57,6.43 14.61,9.18 l 15.06,8.48 c 41.06,21.25 86.7,30.94 131.54,34.89 45.14,4.67 89.99,-0.39 133.69,-7.4 21.66,-4.72 43.19,-9.66 64.52,-14.9 20.96,-6.7 41.91,-13.31 62.19,-21.6 l -2.78,-9.61 c -21.76,2.25 -42.86,6.19 -63.93,10.03 -21.27,2.63 -42.52,4.91 -63.65,7.01 -42.45,1.21 -84.66,2.71 -125.77,-3.6 -41.14,-5.18 -81.09,-15.63 -118.54,-31.53 -18.65,-8.07 -36.96,-17.22 -53.96,-28.49 -17.32,-10.79 -34.43,-22.6 -51.62,-35.32 l -8.46,5.33" /><path
         id="path28"
         style="fill:#a98d5d;fill-opacity:1;fill-rule:nonzero;stroke:none"
         d="m 3004.22,1355.24 c 2.92,23.55 13.74,44.24 27.69,62.48 14.03,18.22 31.71,33.5 50.68,46.64 38.5,26.1 84.39,38.53 129.09,42.56 44.98,3.47 89.64,-1.17 132.12,-11.66 42.42,-10.68 83.94,-23.68 122.39,-43.61 l -3.4,-9.4 c -41.84,8.86 -82.55,19.66 -124.13,24.16 -41.42,4.62 -82.74,5.43 -122.7,0.45 -39.92,-5.22 -77.91,-17.56 -111.88,-36.91 -17.11,-9.52 -32.97,-21.29 -47.51,-34.76 -14.78,-13.2 -28.93,-27.89 -43.01,-43.5 l -9.34,3.55" /><path
         id="path30"
         style="fill:#a98d5d;fill-opacity:1;fill-rule:nonzero;stroke:none"
         d="m 1221.17,682.891 c -8.75,4.531 -12.15,6.211 -18.09,7.898 -9.02,3.109 -18.64,4.531 -28.8,4.531 -45.24,0 -75.48,-30.25 -75.48,-75.761 0,-46.071 33.06,-76.309 82.82,-76.309 16.96,0 31.08,3.949 50.3,14.141 l -7.9,-31.68 c -15.28,-2.813 -28.56,-3.949 -42.12,-3.949 -68.41,0 -113.62,38.718 -113.62,97.25 0,58.5 45.48,98.066 112.77,98.066 11.87,0 20.93,-0.848 36.45,-3.68 l 3.67,-30.507" /><path
         id="path32"
         style="fill:#a98d5d;fill-opacity:1;fill-rule:nonzero;stroke:none"
         d="m 1428.5,542.398 c 41.54,0 70.65,31.954 70.65,77.461 0,44.661 -29.39,75.731 -72.06,75.731 -41.84,0 -69.54,-30.789 -69.54,-78 0,-44.102 29.39,-75.192 70.95,-75.192 z m -0.85,174.403 c 58.21,0 101.46,-41.262 101.46,-96.942 0,-55.699 -43.79,-98.097 -101.19,-98.097 -57.36,0 -99.75,40.988 -99.75,96.117 0,57.359 41.53,98.922 99.48,98.922" /><path
         id="path34"
         style="fill:#a98d5d;fill-opacity:1;fill-rule:nonzero;stroke:none"
         d="m 1643.78,546.648 v 145.274 c 0,11.867 -2.26,16.949 -9.88,21.758 h 47.74 c -7.34,-4.809 -9.88,-9.891 -9.88,-21.758 V 546.371 h 55.4 9.89 c 10.19,0.551 14.99,1.141 20.63,3.098 6.24,1.98 10.74,4.519 16.4,9.051 l -11.01,-33.36 H 1633.9 c 7.62,4.531 9.88,9.879 9.88,21.488" /><path
         id="path36"
         style="fill:#a98d5d;fill-opacity:1;fill-rule:nonzero;stroke:none"
         d="m 1877.38,546.648 v 145.274 c 0,11.867 -2.27,16.949 -9.89,21.758 h 47.75 c -7.35,-4.809 -9.89,-9.891 -9.89,-21.758 V 546.371 h 55.4 9.9 c 10.18,0.551 14.99,1.141 20.62,3.098 6.24,1.98 10.74,4.519 16.41,9.051 l -11.02,-33.36 h -129.17 c 7.62,4.531 9.89,9.879 9.89,21.488" /><path
         id="path38"
         style="fill:#a98d5d;fill-opacity:1;fill-rule:nonzero;stroke:none"
         d="m 2192.94,546.371 c 22.32,0 29.39,1.68 40.71,10.168 l 1.68,1.41 -8.75,-32.789 h -125.49 c 7.61,4.531 9.88,9.879 9.88,21.488 v 145.274 c 0,11.867 -2.27,16.949 -9.88,21.758 h 118.97 l 3.4,-29.391 -1.13,0.859 c -8.76,6.211 -12.98,7.352 -26.58,7.352 h -56.8 v -52.309 h 57.09 c 9.91,0 11.32,0 14.71,1.707 l 1.41,-29.41 c -3.94,3.391 -5.66,4.25 -8.48,5.102 -2.84,1.14 -7.64,1.422 -16.4,1.422 h -48.33 v -72.641 h 53.99" /><path
         id="path40"
         style="fill:#a98d5d;fill-opacity:1;fill-rule:nonzero;stroke:none"
         d="m 2484.45,682.891 c -8.75,4.531 -12.15,6.211 -18.09,7.898 -9.03,3.109 -18.64,4.531 -28.81,4.531 -45.23,0 -75.48,-30.25 -75.48,-75.761 0,-46.071 33.06,-76.309 82.83,-76.309 16.96,0 31.07,3.949 50.29,14.141 l -7.89,-31.68 c -15.28,-2.813 -28.57,-3.949 -42.12,-3.949 -68.41,0 -113.62,38.718 -113.62,97.25 0,58.5 45.48,98.066 112.76,98.066 11.87,0 20.94,-0.848 36.45,-3.68 l 3.68,-30.507" /><path
         id="path42"
         style="fill:#a98d5d;fill-opacity:1;fill-rule:nonzero;stroke:none"
         d="M 2643.75,546.648 V 692.5 h -30.82 c -16.66,0 -22.04,-2.27 -31.07,-13.289 l 4.8,34.469 h 142.18 l 4.81,-34.469 c -4.81,5.937 -7.07,7.91 -10.75,9.891 -4.8,2.546 -10.74,3.398 -20.35,3.398 h -30.82 V 546.648 c 0,-11.609 2.54,-16.957 9.88,-21.488 h -47.75 c 7.63,4.531 9.89,9.879 9.89,21.488" /><path
         id="path44"
         style="fill:#a98d5d;fill-opacity:1;fill-rule:nonzero;stroke:none"
         d="m 2838.63,546.648 v 145.274 c 0,11.867 -2.27,16.949 -9.9,21.758 h 47.76 c -7.35,-4.809 -9.89,-9.891 -9.89,-21.758 V 546.648 c 0,-11.609 2.54,-16.957 9.89,-21.488 h -47.76 c 7.63,4.531 9.9,9.879 9.9,21.488" /><path
         id="path46"
         style="fill:#a98d5d;fill-opacity:1;fill-rule:nonzero;stroke:none"
         d="m 3081.8,542.398 c 41.53,0 70.64,31.954 70.64,77.461 0,44.661 -29.38,75.731 -72.05,75.731 -41.84,0 -69.54,-30.789 -69.54,-78 0,-44.102 29.39,-75.192 70.95,-75.192 z m -0.86,174.403 c 58.22,0 101.47,-41.262 101.47,-96.942 0,-55.699 -43.8,-98.097 -101.19,-98.097 -57.36,0 -99.75,40.988 -99.75,96.117 0,57.359 41.53,98.922 99.47,98.922" /><path
         id="path48"
         style="fill:#a98d5d;fill-opacity:1;fill-rule:nonzero;stroke:none"
         d="m 3297.05,546.648 v 143.864 c 0,11.879 -2.81,18.359 -9.88,23.168 h 33.63 l 106.28,-125.77 v 104.012 c 0,11.867 -2.26,16.949 -9.89,21.758 h 42.09 c -7.34,-4.809 -9.88,-9.891 -9.88,-21.758 v -170.16 l -130.03,153.476 v -128.59 c 0,-11.609 2.57,-16.957 9.91,-21.488 h -42.11 c 7.62,4.531 9.88,9.879 9.88,21.488" /><path
         id="path50"
         style="fill:#a98d5d;fill-opacity:1;fill-rule:nonzero;stroke:none"
         d="m 1998.05,1843.22 v 148.49 h -31.38 c -16.95,0 -22.44,-2.32 -31.63,-13.53 l 4.89,35.09 h 144.74 l 4.89,-35.09 c -4.89,6.04 -7.19,8.04 -10.93,10.06 -4.9,2.59 -10.94,3.47 -20.73,3.47 h -31.37 v -148.49 c 0,-11.8 2.58,-17.26 10.06,-21.87 h -48.61 c 7.77,4.61 10.07,10.07 10.07,21.87" /><path
         id="path52"
         style="fill:#a98d5d;fill-opacity:1;fill-rule:nonzero;stroke:none"
         d="m 2196.43,1843.22 v 147.89 c 0,12.09 -2.31,17.27 -10.07,22.16 h 48.61 c -7.48,-4.89 -10.05,-10.07 -10.05,-22.16 v -55.25 h 86.62 v 55.25 c 0,12.09 -2.31,17.27 -10.1,22.16 h 48.64 c -7.48,-4.89 -10.07,-10.07 -10.07,-22.16 v -147.89 c 0,-11.8 2.59,-17.26 10.07,-21.87 h -48.64 c 7.79,4.61 10.1,10.07 10.1,21.87 v 71.36 h -86.62 v -71.36 c 0,-11.8 2.57,-17.26 10.05,-21.87 h -48.61 c 7.76,4.61 10.07,10.07 10.07,21.87" /><path
         id="path54"
         style="fill:#a98d5d;fill-opacity:1;fill-rule:nonzero;stroke:none"
         d="m 2549.37,1842.95 c 22.71,0 29.91,1.71 41.44,10.34 l 1.71,1.43 -8.91,-33.37 h -127.76 c 7.77,4.61 10.07,10.07 10.07,21.87 v 147.89 c 0,12.09 -2.3,17.27 -10.07,22.16 h 121.13 l 3.45,-29.92 -1.15,0.87 c -8.92,6.33 -13.21,7.49 -27.05,7.49 h -57.83 v -53.26 h 58.11 c 10.1,0 11.54,0 14.99,1.75 l 1.44,-29.95 c -4.03,3.46 -5.77,4.33 -8.63,5.21 -2.9,1.15 -7.8,1.43 -16.7,1.43 h -49.21 v -73.94 h 54.97" /></g></g></svg>