<?xml version="1.0" encoding="UTF-8" standalone="no"?>
<svg
   xmlns:dc="http://purl.org/dc/elements/1.1/"
   xmlns:cc="http://creativecommons.org/ns#"
   xmlns:rdf="http://www.w3.org/1999/02/22-rdf-syntax-ns#"
   xmlns:svg="http://www.w3.org/2000/svg"
   xmlns="http://www.w3.org/2000/svg"
   viewBox="0 0 156 46.999999"
   height="47"
   width="156"
   xml:space="preserve"
   id="svg2"
   version="1.1"><metadata
     id="metadata8"><rdf:RDF><cc:Work
         rdf:about=""><dc:format>image/svg+xml</dc:format><dc:type
           rdf:resource="http://purl.org/dc/dcmitype/StillImage" /><dc:title></dc:title></cc:Work></rdf:RDF></metadata><defs
     id="defs6" /><g
     transform="matrix(1.3333333,0,0,-1.3333333,-10.911453,64.529199)"
     id="g10"><g
       transform="matrix(0.04333343,0,0,0.04525648,4.6373598,7.1970758)"
       id="g12"><path
         id="path14"
         style="fill:#a98d5d;fill-opacity:1;fill-rule:nonzero;stroke:none"
         d="m 201.84,289.652 h 11.551 V 217.68 h 99.535 v 71.972 h 11.547 V 134.137 h -11.547 v 72.871 H 213.391 V 134.137 H 201.84 v 155.515" /><path
         id="path16"
         style="fill:#a98d5d;fill-opacity:1;fill-rule:nonzero;stroke:none"
         d="m 571.551,211.449 v 0.442 c 0,38.445 -27.992,69.988 -66.43,69.988 -38.433,0 -65.98,-31.102 -65.98,-69.539 v -0.449 c 0,-38.43 27.992,-69.973 66.425,-69.973 38.43,0 65.985,31.094 65.985,69.531 z m -144.41,0 v 0.442 c 0,42.441 31.324,80.429 78.425,80.429 47.098,0 77.985,-37.55 77.985,-79.98 v -0.449 c 0,-42.43 -31.332,-80.422 -78.43,-80.422 -47.101,0 -77.98,37.551 -77.98,79.98" /><path
         id="path18"
         style="fill:#a98d5d;fill-opacity:1;fill-rule:nonzero;stroke:none"
         d="m 717.094,279 h -54.215 v 10.652 H 782.855 V 279 h -54.21 V 134.137 H 717.094 V 279" /><path
         id="path20"
         style="fill:#a98d5d;fill-opacity:1;fill-rule:nonzero;stroke:none"
         d="M 881.297,289.652 H 991.934 V 279 h -99.082 v -61.105 h 89.082 v -10.672 h -89.082 v -62.422 h 100.195 v -10.664 h -111.75 v 155.515" /><path
         id="path22"
         style="fill:#a98d5d;fill-opacity:1;fill-rule:nonzero;stroke:none"
         d="m 1093.49,289.652 h 11.55 V 144.801 h 91.31 v -10.664 h -102.86 v 155.515" /><path
         id="path24"
         style="fill:#a98d5d;fill-opacity:1;fill-rule:nonzero;stroke:none"
         d="m 1417.44,211.449 v 0.442 c 0,41.992 30.44,80.429 76.87,80.429 25.33,0 41.32,-7.55 56.87,-20.441 l -7.55,-8.66 c -12.22,10.656 -26.44,18.66 -49.99,18.66 -37.77,0 -64.21,-32 -64.21,-69.539 v -0.449 c 0,-40.207 25.11,-70.196 66.65,-70.196 19.78,0 38.23,8.211 49.54,17.766 v 44.664 h -51.98 v 10.656 h 63.11 v -59.98 c -14.01,-12.442 -35.78,-23.332 -61.11,-23.332 -49.1,0 -78.2,36.211 -78.2,79.98" /><path
         id="path26"
         style="fill:#a98d5d;fill-opacity:1;fill-rule:nonzero;stroke:none"
         d="m 1725.82,209.008 c 26,0 45.32,13.117 45.32,35.547 v 0.441 c 0,20.887 -16.44,34.004 -44.65,34.004 h -53.1 v -69.992 z m -63.99,80.644 h 65.33 c 19.11,0 34.43,-5.984 43.77,-15.32 7.32,-7.332 11.76,-17.773 11.76,-28.898 v -0.438 c 0,-25.988 -19.32,-40.871 -45.53,-44.433 l 51.32,-66.426 h -14.67 l -49.54,64.433 h -50.88 v -64.433 h -11.56 v 155.515" /><path
         id="path28"
         style="fill:#a98d5d;fill-opacity:1;fill-rule:nonzero;stroke:none"
         d="m 2023.34,211.449 v 0.442 c 0,38.445 -28,69.988 -66.43,69.988 -38.43,0 -65.98,-31.102 -65.98,-69.539 v -0.449 c 0,-38.43 27.99,-69.973 66.42,-69.973 38.44,0 65.99,31.094 65.99,69.531 z m -144.42,0 v 0.442 c 0,42.441 31.33,80.429 78.43,80.429 47.1,0 77.98,-37.55 77.98,-79.98 v -0.449 c 0,-42.43 -31.32,-80.422 -78.42,-80.422 -47.1,0 -77.99,37.551 -77.99,79.98" /><path
         id="path30"
         style="fill:#a98d5d;fill-opacity:1;fill-rule:nonzero;stroke:none"
         d="m 2135.55,198.793 v 90.859 h 11.56 v -89.754 c 0,-36.66 19.77,-57.753 52.65,-57.753 31.56,0 51.76,19.101 51.76,56.648 v 90.859 h 11.55 v -89.527 c 0,-44.66 -25.98,-68.441 -63.75,-68.441 -37.33,0 -63.77,23.554 -63.77,67.109" /><path
         id="path32"
         style="fill:#a98d5d;fill-opacity:1;fill-rule:nonzero;stroke:none"
         d="m 2424.39,202.777 c 28.88,0 48.44,15.118 48.44,38.235 v 0.437 c 0,24.66 -19.11,37.551 -47.1,37.551 h -43.99 v -76.223 z m -54.21,86.875 h 56.44 c 34.21,0 57.76,-17.547 57.76,-47.539 v -0.437 c 0,-32.668 -28.22,-49.551 -60.65,-49.551 h -41.99 v -57.988 h -11.56 v 155.515" /><path
         id="path34"
         style="fill:#a98d5d;fill-opacity:1;fill-rule:nonzero;stroke:none"
         d="m 2706.32,872.535 c 0,-21.074 16.75,-37.691 37.69,-37.691 21.08,0 37.82,16.754 37.82,37.828 0,20.805 -16.88,37.691 -37.82,37.691 -20.94,0 -37.69,-16.75 -37.69,-37.828 m 3.79,0.137 c 0,18.773 14.99,33.91 33.9,33.91 18.92,0 34.05,-15.137 34.05,-33.91 0,-18.918 -15.13,-34.043 -34.05,-34.043 -18.91,0 -33.9,15.125 -33.9,34.043 m 18.63,-20.402 h 5.41 v 17.023 h 12.69 c 3.25,0 5,-0.539 5.95,-1.895 0.81,-0.941 1.36,-2.296 1.36,-3.644 0.13,-0.945 0.13,-2.84 0.26,-5.941 0.14,-2.836 0.28,-4.325 0.81,-5.543 h 6.49 v 0.949 c -1.08,0.672 -1.49,1.082 -1.62,2.027 -0.41,1.215 -0.41,2.024 -0.68,8.508 -0.13,5 -1.22,6.754 -4.72,8.105 4.05,2.301 5.53,4.864 5.53,9.325 0,7.429 -4.32,10.804 -13.91,10.804 h -17.57 z m 5.41,21.613 v 13.515 h 12.56 c 5.41,0 8.11,-2.164 8.11,-6.621 0,-4.726 -2.57,-6.894 -8.11,-6.894 h -12.56" /><path
         id="path36"
         style="fill:#a98d5d;fill-opacity:1;fill-rule:nonzero;stroke:none"
         d="m 2373.9,722.715 v 141.148 c 61.47,0 78.4,-1.254 97.23,-6.281 28.85,-7.523 48.29,-34.5 48.29,-68.371 0,-47.051 -36.36,-77.789 -90.95,-77.789 -18.19,0 -32,2.516 -54.57,11.293 m -84.07,-230.856 h 106.02 c -16.3,10.039 -21.95,21.961 -21.95,47.684 v 139.262 c 24.46,-8.164 45.79,-11.918 70.26,-11.918 84.06,0 152.11,50.804 152.11,124.203 0,46.426 -33.55,87.207 -73.08,105.39 -18.18,8.153 -40.77,12.547 -71.51,13.18 -5.01,0.625 -15.05,0.625 -30.11,0.625 h -131.74 c 16.95,-10.664 21.96,-21.953 21.96,-48.308 V 539.543 c 0,-25.723 -5.01,-37.645 -21.96,-47.684 m -687.54,0 h 88.45 c -13.17,13.176 -15.68,18.821 -15.68,32.618 0,3.769 0,8.785 0.62,11.925 l 34.5,278.532 145.55,-330.594 143.65,330.594 35.13,-267.243 c 0.63,-5.011 0.63,-12.55 0.63,-18.812 0,-18.199 -3.75,-27.613 -15.68,-37.02 h 101 c -9.41,9.407 -13.18,13.809 -16.32,20.075 -4.39,7.535 -5.64,12.543 -8.15,33.871 l -41.4,309.91 c -1.25,9.402 -1.25,13.164 -1.25,18.812 0,16.934 3.12,23.836 17.56,35.758 h -83.44 L 1862,621.09 1734.02,910.285 h -84.69 c 13.8,-11.922 17.57,-19.445 17.57,-33.875 0,-5.652 -0.62,-17.57 -1.88,-24.465 l -38.27,-311.777 c -3.13,-26.98 -8.78,-38.27 -24.46,-48.309 m -535.72,418.426 c 16.93,-10.664 21.96,-21.953 21.96,-48.308 V 661.859 c 0,-67.117 9.41,-97.855 38.26,-127.343 33.25,-33.25 77.79,-50.176 133.62,-50.176 75.27,0 132.36,33.246 155.57,90.328 8.79,21.957 11.92,43.281 11.92,82.809 v 204.5 c 0,26.355 5.02,37.644 21.95,48.308 h -93.45 c 16.93,-10.664 21.95,-21.953 21.95,-48.308 v -202 c 0,-55.2 -6.28,-77.786 -26.35,-98.481 -21.33,-21.328 -50.82,-31.992 -85.95,-31.992 -42.65,0 -79.04,16.301 -97.85,44.539 -13.81,20.699 -17.58,40.141 -17.58,87.191 v 200.743 c 0,26.355 5.66,37.644 21.96,48.308 z M 658.324,743.414 v 119.824 c 18.199,0.625 25.723,0.625 34.5,0.625 41.414,0 62.11,-3.765 77.168,-15.058 12.539,-8.782 20.074,-24.469 20.074,-42.653 0,-30.746 -20.699,-54.589 -52.074,-60.23 -12.543,-2.508 -25.707,-3.762 -46.422,-3.762 -10.035,0 -16.929,0 -33.246,1.254 M 574.27,491.859 h 106.011 c -16.304,10.039 -21.957,21.961 -21.957,47.684 v 159.961 c 25.098,-0.625 34.5,-3.141 48.305,-10.664 13.805,-8.152 26.976,-21.953 42.656,-43.906 L 858.441,491.859 H 961.32 c -20.695,8.782 -25.09,11.289 -32.617,17.559 -8.152,5.656 -13.801,11.922 -23.211,25.098 l -7.523,10.035 -82.18,112.301 c -4.394,6.265 -6.906,9.402 -7.531,10.664 -3.133,4.379 -6.903,8.777 -10.664,13.804 -5.641,6.266 -9.41,10.657 -13.18,13.789 -5.012,5.024 -8.152,6.907 -16.305,12.547 60.231,12.543 91.59,46.422 91.59,99.121 0,45.168 -26.98,82.184 -68.379,94.727 -21.328,6.269 -36.386,7.523 -79.668,8.156 -16.312,0 -28.23,0.625 -35.754,0.625 H 574.27 c 16.933,-10.664 21.96,-21.953 21.96,-48.308 V 539.543 c 0,-25.723 -5.027,-37.645 -21.96,-47.684 M 147.348,863.238 h 68.379 V 539.543 c 0,-25.723 -5.016,-37.645 -21.957,-47.684 h 106.019 c -16.305,10.039 -21.953,21.961 -21.953,47.684 v 323.695 h 68.375 c 21.328,0 15.781,-0.109 37.387,-0.109 0,0 18.324,0.664 28.156,-5.234 l -7.199,52.39" /><path
         id="path38"
         style="fill:#a98d5d;fill-opacity:1;fill-rule:nonzero;stroke:none"
         d="m 215.371,863.141 -68.008,0.101 c -21.324,0 -15.777,-0.101 -37.383,-0.101 -0.656,0 -18.3316,0.648 -28.1441,-5.235 l 7.1875,52.387 H 404.57" /></g></g></svg>