<?xml version="1.0" encoding="UTF-8" standalone="no"?>
<svg
   xmlns:dc="http://purl.org/dc/elements/1.1/"
   xmlns:cc="http://creativecommons.org/ns#"
   xmlns:rdf="http://www.w3.org/1999/02/22-rdf-syntax-ns#"
   xmlns:svg="http://www.w3.org/2000/svg"
   xmlns="http://www.w3.org/2000/svg"
   viewBox="0 0 148 46.666668"
   height="46.666668"
   width="148"
   xml:space="preserve"
   id="svg2"
   version="1.1"><metadata
     id="metadata8"><rdf:RDF><cc:Work
         rdf:about=""><dc:format>image/svg+xml</dc:format><dc:type
           rdf:resource="http://purl.org/dc/dcmitype/StillImage" /><dc:title></dc:title></cc:Work></rdf:RDF></metadata><defs
     id="defs6" /><g
     transform="matrix(1.3333333,0,0,-1.3333333,0,46.666667)"
     id="g10"><g
       transform="scale(0.1)"
       id="g12"><path
         id="path14"
         style="fill:#a98d5d;fill-opacity:1;fill-rule:nonzero;stroke:none"
         d="m 851.02,78.6719 h 3.468 l 5.203,-17.0313 5.149,17.0313 h 3.48 V 58.4805 h -2.3 v 16.9883 l -5.161,-16.9883 h -2.379 l -5.16,16.9883 V 58.4805 h -2.3 z m -17.782,0 h 14.614 v -2.3828 h -6.09 V 58.4805 h -2.5 v 17.8086 h -6.024 v 2.3828" /><path
         id="path16"
         style="fill:#a98d5d;fill-opacity:1;fill-rule:nonzero;stroke:none"
         d="M 764.301,7.53906 C 771.719,5.85938 777.461,5 782.891,5 c 17.968,0 29.648,8.7109 29.648,21.9102 0,5.3593 -2.07,10.3203 -5.738,13.3593 -3.321,2.9297 -5.86,4.0703 -15.43,7.4297 -8.672,3.0391 -11.723,4.5313 -14.031,6.8321 -1.25,1.3671 -2.07,3.4804 -2.07,5.5468 0,5.9024 5.429,9.6524 13.871,9.6524 3.98,0 8.05,-0.9414 11.718,-2.3907 1.993,-0.8593 3.243,-1.6015 6.371,-3.5898 l -1.57,12.1914 -1.68,0.3086 c -5.621,0.9414 -8.859,1.25 -12.929,1.25 -16.91,0 -26.52,-7.1094 -26.52,-19.4883 0,-5.6719 2.5,-9.7734 7.699,-13.0508 3.239,-1.9921 5.86,-3.1211 12.848,-5.7421 2.422,-0.8594 4.692,-1.6797 6.684,-2.418 2.418,-0.8594 4.289,-1.8008 5.738,-2.8516 2.73,-1.7578 4.301,-4.9297 4.301,-8.3594 0,-7.6992 -6.801,-12.621 -17.11,-12.621 -8.48,0 -14.961,2.3007 -22.031,7.8906 z m -90,-1.28906 h 47.687 l 4.063,12.3789 c -2.071,-1.6797 -3.75,-2.6094 -6.051,-3.3594 -2.07,-0.6992 -3.871,-0.9297 -7.621,-1.1289 h -24.098 v 54.0196 c 0,4.4179 0.938,6.289 3.629,8.0898 h -17.609 c 2.808,-1.8008 3.629,-3.6719 3.629,-8.0898 V 14.2188 c 0,-4.29692 -0.821,-6.28911 -3.629,-7.9688 m -72.781,7.8906 v 26.9492 h 17.859 c 3.242,0 5,-0.1093 6.051,-0.5 1.05,-0.3203 1.679,-0.6289 3.121,-1.9179 l -0.5,10.9375 c -1.25,-0.6289 -1.762,-0.6289 -5.43,-0.6289 H 601.52 v 19.3789 h 20.98 c 5.039,0 6.602,-0.3906 9.84,-2.6992 l 0.39,-0.3086 -1.25,10.8984 h -43.941 c 2.813,-1.8008 3.672,-3.6719 3.672,-8.0898 V 14.2188 c 0,-4.29692 -0.859,-6.28911 -3.672,-7.9688 h 46.371 l 3.199,12.1914 -0.629,-0.5508 c -4.14,-3.1211 -6.75,-3.75 -15,-3.75 z m -88,-7.8906 h 17.652 c -2.692,1.67969 -3.633,3.67188 -3.633,7.9688 v 54.1406 h 11.371 c 3.551,0 5.738,-0.3086 7.5,-1.25 1.36,-0.6992 2.18,-1.4492 3.981,-3.668 L 548.59,76.25 h -52.5 l -1.75,-12.8086 c 3.32,4.0977 5.308,4.918 11.48,4.918 h 11.371 V 14.2188 c 0,-4.29692 -0.82,-6.28911 -3.671,-7.9688 m -112.5,34.3398 c 0,17.5 10.23,28.9415 25.699,28.9415 15.742,0 26.601,-11.5196 26.601,-28.1211 0,-16.8789 -10.742,-28.75 -26.09,-28.75 -15.351,0 -26.21,11.5586 -26.21,27.9296 m -10.86,0.0704 C 390.16,20.2305 405.82,5 427.031,5 c 21.168,0 37.348,15.7383 37.348,36.4102 0,20.6601 -15.938,36.0117 -37.469,36.0117 -21.398,0 -36.75,-15.4336 -36.75,-36.7617 M 289.961,6.25 h 17.66 c -2.742,1.67969 -3.672,3.67188 -3.672,7.9688 v 26.0507 h 31.403 V 14.2188 c 0,-4.29692 -0.821,-6.28911 -3.633,-7.9688 h 17.66 c -2.738,1.67969 -3.68,3.67188 -3.68,7.9688 v 53.9414 c 0,4.4179 0.942,6.289 3.68,8.0898 h -17.66 c 2.812,-1.8008 3.633,-3.6719 3.633,-8.0898 V 48.0117 h -31.403 v 20.1485 c 0,4.4179 0.93,6.289 3.672,8.0898 h -17.66 c 2.809,-1.8008 3.668,-3.6719 3.668,-8.0898 V 14.2188 c 0,-4.29692 -0.859,-6.28911 -3.668,-7.9688" /><path
         id="path18"
         style="fill:#a98d5d;fill-opacity:1;fill-rule:nonzero;stroke:none"
         d="m 1010.31,268.52 v 61.32 c 26.57,0 33.91,-0.539 42.03,-2.731 12.46,-3.281 20.86,-15 20.86,-29.73 0,-20.43 -15.7,-33.789 -39.29,-33.789 -7.86,0 -13.83,1.101 -23.6,4.93 M 973.98,168.199 h 45.82 c -7.03,4.379 -9.49,9.531 -9.49,20.711 v 60.5 c 10.59,-3.512 19.81,-5.148 30.39,-5.148 36.33,0 61.8,22.066 61.8,53.937 0,20.199 -10.59,37.891 -27.66,45.781 -7.85,3.559 -17.61,5.469 -30.89,5.75 -2.19,0.27 -6.53,0.27 -13.01,0.27 h -56.96 c 7.309,-4.648 9.5,-9.531 9.5,-20.98 V 188.91 c 0,-11.18 -2.191,-16.332 -9.5,-20.711 m -301.089,0 h 38.238 c -5.699,5.75 -6.789,8.172 -6.789,14.18 0,1.641 0,3.832 0.269,5.199 l 14.922,120.973 62.891,-143.629 62.109,143.629 15.16,-116.09 c 0.27,-2.191 0.27,-5.43 0.27,-8.16 0,-7.93 -1.602,-12 -6.762,-16.102 h 43.641 c -4.07,4.102 -5.711,6.02 -7.039,8.711 -1.91,3.289 -2.461,5.469 -3.512,14.731 l -17.93,134.648 c -0.507,4.102 -0.507,5.742 -0.507,8.16 0,7.391 1.328,10.352 7.578,15.551 L 839.379,350 785.16,224.34 729.84,350 h -36.641 c 5.981,-5.199 7.621,-8.441 7.621,-14.73 0,-2.461 -0.269,-7.61 -0.82,-10.622 L 683.48,189.18 c -1.371,-11.719 -3.832,-16.602 -10.589,-20.981 M 441.328,350 c 7.344,-4.648 9.492,-9.531 9.492,-20.98 v -86.95 c 0,-29.179 4.059,-42.5 16.559,-55.308 14.383,-14.461 33.601,-21.84 57.742,-21.84 32.539,0 57.219,14.457 67.219,39.258 3.832,9.531 5.16,18.832 5.16,35.98 v 88.86 c 0,11.449 2.191,16.332 9.488,20.98 h -40.386 c 7.308,-4.648 9.488,-9.531 9.488,-20.98 v -87.77 c 0,-23.98 -2.692,-33.789 -11.399,-42.77 -9.222,-9.3 -21.961,-13.91 -37.113,-13.91 -18.437,0 -34.18,7.071 -42.308,19.34 -5.969,8.981 -7.61,17.461 -7.61,37.891 v 87.219 c 0,11.449 2.461,16.332 9.488,20.98 z M 260.98,277.5 v 52.07 c 7.848,0.27 11.09,0.27 14.879,0.27 17.891,0 26.871,-1.641 33.36,-6.559 5.429,-3.793 8.672,-10.621 8.672,-18.511 0,-13.36 -8.942,-23.719 -22.5,-26.18 -5.43,-1.09 -11.09,-1.641 -20.082,-1.641 -4.329,0 -7.297,0 -14.329,0.551 M 224.609,168.199 h 45.86 c -7.071,4.379 -9.489,9.531 -9.489,20.711 v 69.531 c 10.821,-0.281 14.879,-1.371 20.86,-4.652 5.969,-3.559 11.64,-9.527 18.43,-19.059 l 47.191,-66.531 h 44.449 c -8.941,3.832 -10.82,4.922 -14.101,7.66 -3.508,2.422 -5.93,5.161 -10.039,10.903 l -3.239,4.328 -35.511,48.789 c -1.911,2.742 -3,4.101 -3.239,4.652 -1.371,1.918 -3.011,3.789 -4.609,5.981 -2.461,2.726 -4.102,4.648 -5.703,6.008 -2.188,2.191 -3.52,3.011 -7.071,5.429 26.051,5.473 39.614,20.199 39.614,43.09 0,19.609 -11.684,35.699 -29.571,41.133 -9.222,2.738 -15.711,3.277 -34.421,3.558 -7.071,0 -12.219,0.27 -15.469,0.27 h -43.942 c 7.34,-4.648 9.493,-9.531 9.493,-20.98 V 188.91 c 0,-11.18 -2.153,-16.332 -9.493,-20.711 M 28.3203,329.57 H 57.8906 V 188.91 c 0,-11.18 -2.1914,-16.332 -9.4922,-20.711 h 45.8204 c -7.0704,4.379 -9.4883,9.531 -9.4883,20.711 v 140.66 h 29.5315 c 9.218,0 6.828,-0.039 16.168,-0.039 0,0 7.929,0.27 12.148,-2.301 l -3.09,22.77" /><path
         id="path20"
         style="fill:#a98d5d;fill-opacity:1;fill-rule:nonzero;stroke:none"
         d="m 57.7305,329.531 -29.4102,0.039 c -9.2187,0 -6.8398,-0.039 -16.1719,-0.039 -0.2695,0 -7.88668,0.27 -12.1484,-2.301 L 3.12109,350 H 139.488" /></g></g></svg>