<?xml version="1.0" encoding="utf-8"?>
<!-- Generator: Adobe Illustrator 22.1.0, SVG Export Plug-In . SVG Version: 6.00 Build 0)  -->
<svg version="1.1" id="Layer_1" xmlns="http://www.w3.org/2000/svg" xmlns:xlink="http://www.w3.org/1999/xlink" x="0px" y="0px"
	 viewBox="0 0 700 700" style="enable-background:new 0 0 700 700;" xml:space="preserve">
<style type="text/css">
	.st0{fill:#AF946D;}
	.st1{fill:#FFFFFF;}
</style>
<g>
	<g>
		<g>
			<g>
				<g>
					<g>
						<path class="st0" d="M139.5,276.8h-2.9c-0.3-5.8,0-9.7-8.5-9.7h-16.2v60.2c0,7.5,4.1,7.7,9.7,7.8v2.8c-5.1,0-9.7-0.2-14.4-0.2
							c-5.1,0-10.1,0.1-15.5,0.2v-2.8c5.6-0.1,9.7-0.2,9.7-7.8v-60.2h-14c-9.6,0-10,2.7-11.8,9.7h-2.8l1.2-17.1h2.1
							c1.2,2.9,4.1,3,6.7,3h48.4c3.8,0,6.5-1,6.9-3h2.2L139.5,276.8z"/>
					</g>
					<g>
						<path class="st0" d="M210.9,302.4v25c0,7.5,4.1,7.7,9.7,7.8v2.8c-5.1,0-9.7-0.2-14.4-0.2c-5.1,0-10.1,0.1-15.5,0.2v-2.8
							c5.3,0.3,9.7-1.1,9.7-7.2v-54.6c0-7.5-4.1-7.7-9.7-7.8v-2.8c5.9,0.1,11,0.2,16.2,0.2c3.7,0,7.5-0.2,14.3-0.2
							c20.2,0,24.7,11.4,24.7,19.1c0,9.2-6.8,15.9-15.1,18.4c9.7,14.3,14.8,23,19.4,28.1c3.4,3.9,6.6,6.8,12,6.8v2.8
							c-2.7,0-5.3-0.2-8-0.2c-3,0-6.1,0.1-9.1,0.2c-9.7-10.8-16.9-23.4-24.5-35.6H210.9z M217.3,266.2c-2.7,0-4.5,0.3-6.4,0.6v31.6
							c1.6,0.3,3.8,0.5,5.7,0.5c13.1,0,18.2-8.7,18.2-16.5C234.8,273.1,229.9,266.2,217.3,266.2z"/>
					</g>
					<g>
						<path class="st0" d="M383.4,265.5c-8.5,0-8.4,4.2-8.4,17.3v31c0,14.7-9.1,25.6-27.8,25.6c-17.6,0-28.2-8.6-28.5-26.9v-39.3
							c0-7.5-4.1-7.7-9.7-7.8v-2.8c5,0.1,9.9,0.2,14.7,0.2c4.9,0,9.8-0.1,15.2-0.2v2.8c-5.7,0.1-9.7,0.2-9.7,7.8v36.6
							c0,12.8,4.2,25.2,20.8,25.2c17.7,0,19.4-13.8,19.4-21.2v-30.7c0-17.7-0.6-17.3-10.1-17.7v-2.8c4.5,0.1,9,0.2,13.4,0.2
							c3.6,0,7.2-0.2,10.8-0.2V265.5z"/>
					</g>
					<g>
						<path class="st0" d="M483.3,323.2c9.6-20.2,20-40,28.8-60.4c2.9,0.1,5.9,0.2,8.8,0.2c3.1,0,6.3-0.2,9.4-0.2v2.8
							c-3.6,0-6.1,0.2-7.5,1.3c-1.4,1.1-2,2.9-2,6.5c0,17,1,35.1,1.4,51.4c0.2,8.1,1,10.5,11.6,10.5v2.8c-5.9,0-11.7-0.2-17.6-0.2
							c-5.2,0-10.4,0.1-15.6,0.2v-2.8c3.7,0,6.4,0,8.2-1c1.9-1.1,2.8-3.1,2.8-7.3l-0.8-51.4h-0.2l-25.2,52.8
							c-1.2,2.6-3.3,7.9-4.2,10.7h-2.1c-9.1-20.6-19.3-40.7-29.4-61.1h-0.2l-0.9,39c0,1.4-0.1,5.3-0.1,6.8c0,5.3,0.5,8.2,2.2,9.7
							c1.7,1.5,4.4,1.8,8.6,1.8v2.8c-4.4,0-8.8-0.2-13.2-0.2c-4.7,0-9.5,0.1-14.2,0.2v-2.8c7.6,0,12.3-1.8,12.7-16.3
							c0.4-14.8,1.2-29.4,1.2-44.2c0-3.8-0.5-6.1-2-7.4c-1.5-1.3-3.8-1.7-7.4-1.7v-2.8c3.7,0.1,7.6,0.2,11.3,0.2
							c2.2,0,4.6-0.2,6.8-0.2L483.3,323.2z"/>
					</g>
					<g>
						<path class="st0" d="M584.1,262.7c4.8,0.2,9.6,0.2,14.4,0.2c3.6,0,7.4-0.2,11.8-0.2c11,0,26.8,4.6,26.8,21.4
							c0,12.7-11.7,21.5-22.9,21.5c-2.1,0-3.8-0.1-5.5-0.1V302c1.4,0.2,2.7,0.2,4.1,0.2c9.2,0,13.2-9.2,13.2-16.9
							c0-15-10.4-19.2-17.4-19.2c-1.6,0-3.5,0.1-4.7,0.3v60.9c0,7.5,4.1,7.7,9.8,7.8v2.8c-5.2,0-9.8-0.2-14.5-0.2
							c-5.1,0-10.1,0.1-15.5,0.2v-2.8c5.7-0.1,9.7-0.2,9.7-7.8v-51.3c0-8.3-1.4-10.6-9.4-10.6V262.7z"/>
					</g>
				</g>
			</g>
		</g>
	</g>
	<g>
		<path d="M358.1,309.8c0,2.2-2.3,5.5-6.8,9.7c-4.5,4.2-10.1,8.4-16.7,12.3c-1.1,3.5-2.3,8.4-3.8,14.6c-2.6,11.2-5,19.1-7.2,23.7
			c-2.2,4.6-5.9,9.3-11,14.1c-14.7,13.9-31.2,20.9-49.5,20.9c-7.7,0-14.2-2.1-19.5-6.2c-2.6,4.6-3.9,8.8-3.9,12.6
			c0,3.9,1.1,7.3,3.3,10.3c0.3,0.3,0.4,0.5,0.4,0.7c0,0.5-0.2,0.7-0.6,0.7c-1,0-2-1.3-3.1-4c-1.1-2.7-1.7-5.2-1.7-7.6
			c0-4.2,1.4-8.8,4.3-13.6c-6.1-5.7-9.1-13.2-9.1-22.4c0-8,2.4-15.9,7.1-23.7c4.7-7.8,11.3-14.8,19.8-21.1c10.9-8,21.7-12,32.3-12
			c5.9,0,10.5,1.6,13.9,4.9c3.4,3.3,5.1,7.7,5.1,13.4c0,2-0.3,4.3-0.9,6.9l18.1-10.3c3.6-7.4,7.9-13.7,12.9-18.9
			c5-5.2,9.4-7.7,13.2-7.7C357,307,358.1,307.9,358.1,309.8z M310.2,336.7c0-5.1-1.5-9.2-4.6-12.2c-3.1-3-7.2-4.6-12.5-4.6
			c-12.5,0-24.8,6.6-36.7,19.7c-11.9,13.1-17.9,26.6-17.9,40.5c0,7,1.6,12.4,4.9,16.1c3.6-5.5,8.8-11.4,15.6-17.7
			c-1.4-2.6-2-5.3-2-8c0-8.6,3.7-16.7,11.1-24.2c7.4-7.5,15.3-11.3,23.7-11.3c3,0,5.4,0.8,7.2,2.4c1.8,1.6,2.7,3.7,2.7,6.4
			c0,1.7-0.3,2.6-1,2.6c-0.3,0-0.4-0.2-0.4-0.6l0.1-0.9c0.1-0.2,0.1-0.5,0.1-1c0-4.9-2.8-7.4-8.3-7.4c-7,0-14.2,4-21.4,12.1
			c-7.2,8.1-10.9,16.1-10.9,24c0,1.6,0.2,3.1,0.7,4.3c9.8-8.6,26-19.3,48.4-32.1C309.8,341.2,310.2,338.5,310.2,336.7z M328,335.1
			c-1.4,0.9-4.2,2.5-8.3,4.8c-4.4,2.5-7.6,4.4-9.6,5.5c-2.8,10.5-8.2,19.8-16.1,28c-8,8.2-15.7,12.2-23.2,12.2c-4.7,0-8.4-2-11-5.9
			c-7,6.8-12.2,12.6-15.3,17.7c4.9,4.2,11.2,6.4,18.8,6.4c8.8,0,17.3-2.5,25.6-7.6c8.3-5,15.4-12,21.4-20.9c2.8-4.2,5-8,6.6-11.6
			c1.6-3.5,4.2-10.3,7.7-20.1C325.5,341.4,326.6,338.6,328,335.1z M308.6,346.7c-22.9,13.3-38.7,23.9-47.4,31.7
			c2,4.1,5.4,6.1,10.1,6.1c6.7,0,13.8-3.9,21.4-11.6C300.5,365.2,305.7,356.5,308.6,346.7z M356.8,309.9c0-1.2-0.7-1.7-2-1.7
			c-3.1,0-6.6,2.2-10.5,6.6c-3.9,4.4-6.9,9.5-9,15.5c6.2-3.8,11.3-7.6,15.4-11.5C354.8,314.8,356.8,311.9,356.8,309.9z"/>
		<path d="M355.8,363.9l-0.6,0.9H346l-15.8,26.9c-1.9,3.3-2.9,5.9-2.9,7.8c0,2.1,1.1,3.2,3.3,3.2c4.3,0,11.6-7.5,21.7-22.4
			c0.3-0.5,0.6-0.7,0.9-0.7c0.3,0,0.4,0.1,0.4,0.4c0,0.2-0.2,0.6-0.7,1.2l-3,4.2c-8.9,12.3-15.5,18.4-20,18.4
			c-2.2,0-4.1-0.8-5.6-2.4c-1.5-1.6-2.2-3.6-2.2-6c0-2.8,1.3-6.3,3.8-10.6l11.9-20h-7.2l0.7-0.9h7.1l8.3-13.9
			c1.4,0.4,2.8,0.6,4.1,0.6c1.3,0,2.6-0.2,4.1-0.6l-8.1,13.9H355.8z"/>
		<path d="M395.5,379.9c0,0.8-1.4,2.6-4.2,5.4c-4.2,4.2-8,6.2-11.4,6.2c-1.4,0-2.8-0.3-3.9-0.9c-6.2,8.8-12,13.2-17.5,13.2
			c-2.8,0-5.2-1.2-7.2-3.5c-2-2.3-3-5.1-3-8.4c0-7.2,4.8-14.2,14.3-20.9c6.7-4.7,12.2-7.1,16.5-7.1c4.1,0,6.1,2.2,6.1,6.5
			c0,5.4-2.8,11.9-8.5,19.4c1,0.6,2,0.9,3.2,0.9c2.1,0,4.6-1,7.4-3c2.8-2,5.1-4.4,7-7.2c0.6-0.7,1-1,1.2-1
			C395.4,379.6,395.5,379.7,395.5,379.9z M384.1,370.5c0-3.9-1.7-5.8-5.2-5.8c-4.2,0-9.5,4.1-15.6,12.3c-6.2,8.2-9.3,15.1-9.3,20.7
			c0,3.3,1.5,4.9,4.6,4.9c5.1,0,10.7-4.2,16.7-12.6c-1.4-1.4-2-3-2-4.6c0-2.3,0.9-4.7,2.8-7.2c1.8-2.5,3.6-3.7,5.4-3.7
			c0.8,0,1.3,0.5,1.6,1.4C383.7,374.3,384.1,372.5,384.1,370.5z"/>
		<path d="M435.9,380c0,0.4-1.4,2.1-4.2,5.2c-3.6,4-7,5.9-10.1,5.9c-3.6,0-5.4-2.1-5.4-6.2c0-1.4,0.3-3,0.9-5.1
			c-3,2.6-5.4,5.2-7.2,7.7c-1.8,2.6-5.1,7.7-9.7,15.6c-2.5,0-4,0-4.3,0c-0.2,0-1.6,0-4.3,0l11.6-18.8c5.8-9.5,8.7-15.3,8.7-17.5
			c0-1.4-0.5-2-1.6-2c-2.6,0-7.4,5.1-14.3,15.2c-0.5,0.7-0.9,1-1.2,1c-0.2-0.1-0.3-0.2-0.3-0.4c0-0.2,0.1-0.4,0.3-0.6l1.3-1.7
			c7.2-9.6,12.2-14.4,14.8-14.4c3.8,0,5.6,2.4,5.6,7.2c0,3.6-1.9,8.4-5.8,14.4c2.4-2.8,4.7-5.1,7-6.9c1.8-4.1,4.1-7.6,6.7-10.4
			c2.7-2.8,5-4.2,7.2-4.2c1.4,0,2.2,0.6,2.2,1.9c0,2.2-3.3,5.4-9.8,9.6c-1,0.7-2.5,1.6-4.6,2.9l-0.9,0.7c-0.7,2.1-1,3.9-1,5.3
			c0,3.9,1.5,5.9,4.5,5.9c3.7,0,7.7-3,12-9.1c1-1.1,1.5-1.6,1.7-1.6C435.8,379.6,435.9,379.7,435.9,380z"/>
		<path d="M471.5,380c0,0.2-0.4,0.8-1.3,1.9l-3,3.8c-9.8,12.1-18.1,18.1-25.1,18.1c-3.4,0-6.2-1.2-8.4-3.5c-2.2-2.4-3.3-5.3-3.3-8.9
			c0-8.5,5.9-15.9,17.8-22.4c6.2-3.4,11.2-5,15.2-5c1.6,0,3.1,0.5,4.3,1.5c1.2,1,1.8,2.2,1.8,3.7c0,3.4-2.2,6.2-6.6,8.6
			c-4.4,2.4-11.8,4.6-22.2,6.7c-3.2,4.8-4.8,8.8-4.8,12.1c0,4,2.2,6.1,6.5,6.1c7.4,0,16.6-7.3,27.4-21.9c0.6-0.8,1.1-1.2,1.4-1.2
			C471.4,379.7,471.5,379.8,471.5,380z M465.6,367c0-1.5-0.8-2.3-2.5-2.3c-2.5,0-5.8,1.7-9.8,5.2c-4.1,3.5-8.1,8-12,13.5
			c6.8-1.7,12.5-4.2,17.2-7.4C463.2,372.8,465.6,369.8,465.6,367z"/>
	</g>
</g>
</svg>
